<mxfile host="Electron" modified="2024-09-17T05:06:23.366Z" agent="Mozilla/5.0 (Windows NT 10.0; Win64; x64) AppleWebKit/537.36 (KHTML, like Gecko) draw.io/22.1.21 Chrome/120.0.6099.109 Electron/28.1.0 Safari/537.36" etag="PP2LNne_0-2-DFOtsmpE" version="22.1.21" type="device">
  <diagram name="Page-1" id="WR1nK2bmbuRRnSlArzg6">
    <mxGraphModel dx="1050" dy="629" grid="1" gridSize="10" guides="1" tooltips="1" connect="1" arrows="1" fold="1" page="1" pageScale="1" pageWidth="850" pageHeight="1100" math="0" shadow="0">
      <root>
        <mxCell id="0" />
        <mxCell id="1" parent="0" />
        <mxCell id="GBQh-kbNGzySexo0KhxP-1" value="TFT Diplay" style="rounded=0;whiteSpace=wrap;html=1;" parent="1" vertex="1">
          <mxGeometry x="500" y="90" width="220" height="280" as="geometry" />
        </mxCell>
        <mxCell id="GBQh-kbNGzySexo0KhxP-2" value="" style="endArrow=classic;html=1;rounded=0;exitX=-0.005;exitY=0.104;exitDx=0;exitDy=0;exitPerimeter=0;fillColor=#e51400;strokeColor=#B20000;strokeWidth=3;" parent="1" source="GBQh-kbNGzySexo0KhxP-1" edge="1">
          <mxGeometry width="50" height="50" relative="1" as="geometry">
            <mxPoint x="270" y="200" as="sourcePoint" />
            <mxPoint x="280" y="119" as="targetPoint" />
          </mxGeometry>
        </mxCell>
        <mxCell id="GBQh-kbNGzySexo0KhxP-4" value="&lt;div&gt;LED (BLK)&lt;/div&gt;&lt;div&gt;&lt;br&gt;&lt;/div&gt;&lt;div&gt;SCK&lt;/div&gt;&lt;div&gt;&lt;br&gt;&lt;/div&gt;&lt;div&gt;SDA (MOSI)&lt;/div&gt;&lt;div&gt;&lt;br&gt;&lt;/div&gt;&lt;div&gt;A0 (D/C)&lt;/div&gt;&lt;div&gt;&lt;br&gt;&lt;/div&gt;&lt;div&gt;RESET&lt;/div&gt;&lt;div&gt;&lt;br&gt;&lt;/div&gt;&lt;div&gt;CS&lt;/div&gt;&lt;div&gt;&lt;br&gt;&lt;/div&gt;&lt;div&gt;GND&lt;/div&gt;&lt;div&gt;&lt;br&gt;&lt;/div&gt;&lt;div&gt;VCC&lt;/div&gt;" style="text;html=1;strokeColor=none;fillColor=none;align=left;verticalAlign=top;whiteSpace=wrap;rounded=0;" parent="1" vertex="1">
          <mxGeometry x="500" y="110" width="110" height="240" as="geometry" />
        </mxCell>
        <mxCell id="GBQh-kbNGzySexo0KhxP-5" value="" style="endArrow=classic;html=1;rounded=0;exitX=-0.005;exitY=0.104;exitDx=0;exitDy=0;exitPerimeter=0;fillColor=#e51400;strokeColor=#B20000;strokeWidth=3;" parent="1" edge="1">
          <mxGeometry width="50" height="50" relative="1" as="geometry">
            <mxPoint x="500" y="330" as="sourcePoint" />
            <mxPoint x="281" y="330" as="targetPoint" />
          </mxGeometry>
        </mxCell>
        <mxCell id="GBQh-kbNGzySexo0KhxP-6" value="" style="endArrow=classic;html=1;rounded=0;exitX=-0.005;exitY=0.104;exitDx=0;exitDy=0;exitPerimeter=0;strokeWidth=3;" parent="1" edge="1">
          <mxGeometry width="50" height="50" relative="1" as="geometry">
            <mxPoint x="500" y="300" as="sourcePoint" />
            <mxPoint x="281" y="300" as="targetPoint" />
          </mxGeometry>
        </mxCell>
        <mxCell id="GBQh-kbNGzySexo0KhxP-7" value="" style="endArrow=classic;html=1;rounded=0;exitX=-0.005;exitY=0.104;exitDx=0;exitDy=0;exitPerimeter=0;fillColor=#a0522d;strokeColor=#6D1F00;strokeWidth=3;" parent="1" edge="1">
          <mxGeometry width="50" height="50" relative="1" as="geometry">
            <mxPoint x="500" y="270" as="sourcePoint" />
            <mxPoint x="281" y="270" as="targetPoint" />
          </mxGeometry>
        </mxCell>
        <mxCell id="GBQh-kbNGzySexo0KhxP-8" value="" style="endArrow=classic;html=1;rounded=0;exitX=-0.005;exitY=0.104;exitDx=0;exitDy=0;exitPerimeter=0;fillColor=#e3c800;strokeColor=#B09500;strokeWidth=3;" parent="1" edge="1">
          <mxGeometry width="50" height="50" relative="1" as="geometry">
            <mxPoint x="500" y="240" as="sourcePoint" />
            <mxPoint x="281" y="240" as="targetPoint" />
          </mxGeometry>
        </mxCell>
        <mxCell id="GBQh-kbNGzySexo0KhxP-9" value="" style="endArrow=classic;html=1;rounded=0;exitX=-0.005;exitY=0.104;exitDx=0;exitDy=0;exitPerimeter=0;fillColor=#e3c800;strokeColor=#B09500;strokeWidth=3;" parent="1" edge="1">
          <mxGeometry width="50" height="50" relative="1" as="geometry">
            <mxPoint x="500" y="210" as="sourcePoint" />
            <mxPoint x="281" y="210" as="targetPoint" />
          </mxGeometry>
        </mxCell>
        <mxCell id="GBQh-kbNGzySexo0KhxP-10" value="" style="endArrow=classic;html=1;rounded=0;exitX=-0.005;exitY=0.104;exitDx=0;exitDy=0;exitPerimeter=0;fillColor=#008a00;strokeColor=#005700;strokeWidth=3;" parent="1" edge="1">
          <mxGeometry width="50" height="50" relative="1" as="geometry">
            <mxPoint x="500" y="180" as="sourcePoint" />
            <mxPoint x="281" y="180" as="targetPoint" />
          </mxGeometry>
        </mxCell>
        <mxCell id="GBQh-kbNGzySexo0KhxP-11" value="" style="endArrow=classic;html=1;rounded=0;exitX=-0.005;exitY=0.104;exitDx=0;exitDy=0;exitPerimeter=0;fillColor=#0050ef;strokeColor=#001DBC;strokeWidth=3;" parent="1" edge="1">
          <mxGeometry width="50" height="50" relative="1" as="geometry">
            <mxPoint x="500" y="150" as="sourcePoint" />
            <mxPoint x="281" y="150" as="targetPoint" />
          </mxGeometry>
        </mxCell>
        <mxCell id="GBQh-kbNGzySexo0KhxP-12" value="ESP32 - WROOM - 32D" style="rounded=0;whiteSpace=wrap;html=1;" parent="1" vertex="1">
          <mxGeometry x="80" y="90" width="200" height="290" as="geometry" />
        </mxCell>
        <mxCell id="GBQh-kbNGzySexo0KhxP-13" value="VCC&lt;br&gt;&lt;br&gt;IO18&lt;br&gt;&lt;br&gt;IO23&lt;br&gt;&lt;br&gt;IO2&lt;br&gt;&lt;br&gt;IO4&lt;br&gt;&lt;br&gt;IO15&lt;br&gt;&lt;br&gt;GND&lt;br&gt;&lt;br&gt;VCC" style="text;html=1;strokeColor=none;fillColor=none;align=right;verticalAlign=top;whiteSpace=wrap;rounded=0;" parent="1" vertex="1">
          <mxGeometry x="180" y="110" width="100" height="240" as="geometry" />
        </mxCell>
      </root>
    </mxGraphModel>
  </diagram>
</mxfile>
